<?xml version="1.0" encoding="UTF-8"?>
<svg xmlns="http://www.w3.org/2000/svg" viewBox="0 0 100 100">
  <g clip-path="url(#a)" fill="#7352b2">
    <g opacity=".7">
      <path d="m50.9 63.6c-.8 0-1.4.6-1.4 1.4s.6 1.4 1.4 1.4 1.4-.6 1.4-1.4-.6-1.4-1.4-1.4zm0 2.3c-.5 0-.9-.4-.9-.9s.4-.9.9-.9.9.4.9.9c-.1.5-.5.9-.9.9z"></path><path d="m56.1 68.1c-.7 0-1.3.6-1.3 1.3s.6 1.3 1.3 1.3 1.3-.6 1.3-1.3-.6-1.3-1.3-1.3z"></path><path d="m46.1 60.2c-.4 0-.8.3-.8.8 0 .4.3.8.8.8.4 0 .8-.3.8-.8s-.4-.8-.8-.8z"></path><path d="m56.3 8.7c.7 0 1.3-.6 1.3-1.3s-.6-1.3-1.3-1.3-1.3.6-1.3 1.3.6 1.3 1.3 1.3z"></path><path d="m60.8 11.9c.4 0 .8-.3.8-.8 0-.4-.3-.8-.8-.8-.4 0-.8.3-.8.8 0 .4.3.8.8.8z"></path><path d="m55.9 12.3-6.9 6.9h.5 1l5.8-5.8 5.8 5.8h1.2.3l-6.9-6.9c-.3-.2-.6-.2-.8 0z"></path><path d="m86.4 47.1 8.3-8.3c.1-.1.1-.2.1-.3s0-.2-.1-.3l-8.3-8.3v-8.4c0-.4-.3-.7-.7-.7l-5-.1c0 .1 0 .1 0 0v1.4c.7 0 1.5.1 2.2.1.6 0 1.1.5 1.1.9v.1 28.8c0 .2-.1.4-.2.5s-.3.2-.5.2c-6.2-.2-7.1-.4-9.7-1-.8-.2-1.8-.4-3.2-.7-2.3-.5-4.3-.7-6-.7-2.9 0-5.1.7-7.2 2.2-.1.1-.4.2-.8.2s-.6-.2-.8-.2c-2.1-1.6-4.2-2.2-7.2-2.2-1.7 0-3.6.2-6 .7-1.4.3-2.4.5-3.2.7-2.6.6-3.4.8-9.7 1-.2 0-.4-.1-.5-.2s-.2-.3-.2-.5c0-1.5 0-28.8 0-28.8v-.1c.1-.5.5-.9 1.1-.9.7 0 1.5 0 2.2-.1 0-.9 0-1.5 0-1.5s0 .1 0 .1l-5 .1c-.4 0-.7.3-.7.7v8.2l-8.6 8.6c-.1.1-.1.2-.1.3s0 .2.1.3l8.5 8.5v7.3c0 .2.1.4.2.5s.3.2.5.2l6.9-.4 21.9 21.9c.2.1.4.1.5.1s.2 0 .3-.1l22-22 7.1.4c.2 0 .4-.1.5-.2s.2-.3.2-.5l-.1-23.5 7.4 7.4-7.3 7.3zm-60-1.1-7.5-7.5 7.6-7.6zm30 7.6 9.2.5-9.4 9.4-9.3-9.3zm-.1 22.3-21-21 10.3-.6 10.4 10.4c.1.1.2.2.4.2.1 0 .3 0 .4-.2l10.2-10.5 10.3.6z"></path><path d="m37.1 20.3 19.2-19.2 18.2 18.2c.2 0 .3.2.3.3l.6.6h.4.9l-20.1-20.1c-.2-.2-.5-.2-.6 0l-20.2 20.2h1.1z"></path></g><path d="m83.9 23.1c-.1-.5-.5-.9-1.1-.9-.8 0-1.5 0-2.2-.1 0-.9 0-1.5 0-1.5s.2-.6-.4-.6c0 0-.1 0-.2 0-1.4.2-2.8.3-4.1.3-.3 0-.7 0-1 0v-.6c0-.2-.1-.3-.3-.3l-5.4-.4c-.1 0-.2 0-.3.1s-.1.2-.1.3v.3c-2-.3-3.9-.5-5.6-.5-2.5 0-4.8.6-6.8 2.4-2.1-1.8-4.3-2.4-6.8-2.4-3.6 0-7.7 1.1-12.6 1.1-1.3 0-2.7-.1-4.1-.3-.1 0-.1 0-.2 0-.6 0-.4.6-.4.6s0 .6 0 1.5c-.7 0-1.5.1-2.2.1-.6 0-1.1.5-1.1.9v.1 28.8c0 .2.1.4.2.5s.3.2.5.2c6.2-.2 7.1-.4 9.7-1 .8-.2 1.8-.4 3.2-.7 2.3-.5 4.3-.7 6-.7 2.9 0 5.1.7 7.2 2.2.1.1.4.2.8.2s.6-.2.8-.2c2.1-1.6 4.2-2.2 7.2-2.2 1.7 0 3.6.2 6 .7 1.4.3 2.4.5 3.2.7 2.6.6 3.4.8 9.7 1 .2 0 .4-.1.5-.2s.2-.3.2-.5c0-1.5 0-28.8 0-28.8-.3-.1-.3-.1-.3-.1zm-27.1-1c1.7-1.5 3.7-2.2 6.4-2.2 1.6 0 3.4.2 5.3.5h.4l-.1 16.4c0 .1.1.3.2.3h.1c.1 0 .2 0 .2-.1l2.8-2.7 2.6 2.6c.1.1.3.1.4.1.1-.1.2-.2.2-.3l-.4-15.7h1c1.4 0 2.7-.1 4-.3 0 10.1-.1 24.7-.2 28-.5 0-1.1 0-1.5-.1-3.3-.1-4.8-.2-9.6-1.2-2.2-.5-4-.7-5.6-.7-2.6 0-4.5.6-6.3 2.1 0-4.2 0-17.4.1-26.7zm-19.9-1.1c2.7 0 5.2-.3 7.4-.6 1.9-.2 3.6-.5 5.3-.5 2.7 0 4.7.7 6.4 2.2.1 9.3.2 22.5.1 26.8-1.8-1.5-3.7-2.1-6.3-2.1-1.5 0-3.3.2-5.6.7-4.8 1-6.3 1-9.6 1.2-.5 0-1 0-1.5.1-.1-3.3-.2-17.9-.2-28 1.3.1 2.6.2 4 .2zm11.6 28.5c-1.7 0-3.7.2-6.1.7-5.8 1.2-4.6 1.4-12.8 1.7 0-1.5 0-28.8 0-28.8s.1-.3.5-.3c.7 0 1.5 0 2.2-.1 0 6.6.1 26 .2 26.7 5.1-.2 6.1 0 11.9-1.2 2.2-.4 3.9-.7 5.4-.7 2.9 0 4.7.9 6.3 2.4v2c-2.1-1.5-4.3-2.4-7.6-2.4zm34.7 2.5c-8.1-.3-7-.5-12.8-1.7-2.4-.5-4.4-.7-6.1-.7-3.3 0-5.5.9-7.6 2.4 0-.2 0-2 0-2s0 0 0 0c1.6-1.5 3.3-2.3 6.2-2.3 1.5 0 3.2.2 5.4.7 5.8 1.2 6.8 1 11.9 1.2.1-.7.2-20.1.2-26.7.7 0 1.5.1 2.2.1.4 0 .5.3.5.3s.1 27.1.1 28.7z"></path>
    </g>
</svg>
