<?xml version="1.0" encoding="utf-8"?>
<!-- Generator: Adobe Illustrator 27.0.0, SVG Export Plug-In . SVG Version: 6.00 Build 0)  -->
<svg version="1.1" id="Layer_2" xmlns="http://www.w3.org/2000/svg" xmlns:xlink="http://www.w3.org/1999/xlink" x="0px" y="0px"
	 viewBox="0 0 36 31" style="enable-background:new 0 0 36 31;" xml:space="preserve">
<style type="text/css">
	.st0{fill-rule:evenodd;clip-rule:evenodd;fill:#FFFFFF;}
</style>
<path class="st0" d="M21.4,3.9c-0.2-1.3-1.4-3.5-3.1-3.5c-1.5,0-2.8,1.3-3.4,3.4C9,5.3,4.6,10.4,4.5,16.7h0v1h0.1
	c0.3,7.1,6.3,12.9,13.5,12.9c7.2,0,13.5-6.1,13.5-13.5C31.6,10.7,27.2,5.4,21.4,3.9L21.4,3.9z M18.2,1.7c0.7,0,1.4,1.1,1.7,1.9
	c-0.6-0.1-1.3-0.1-2-0.1c-0.6,0-1.2,0-1.8,0.1C16.6,2.6,17.3,1.7,18.2,1.7z M18,4.7c6.7,0,12.1,5.3,12.3,11.9h-1.7
	C28.4,11,23.8,6.4,18,6.4C12.3,6.4,7.6,11,7.4,16.7H5.7C5.9,10.1,11.4,4.7,18,4.7L18,4.7z M17.5,10.1c-0.6,0.1-1.2,0.4-1.6,0.9
	c-0.4,0.4-0.7,1-0.7,1.6c0,0.6,0.1,1.2,0.5,1.7l1.8,2.7l-1.8,2.7c-0.3,0.5-0.5,1.1-0.5,1.7c0,0.6,0.3,1.2,0.7,1.6
	c0.4,0.4,1,0.7,1.6,0.9v2.5C12.6,26,8.7,22,8.7,17c0-5,3.9-9,8.8-9.3L17.5,10.1L17.5,10.1z M18.5,23.8c0.7-0.1,1.3-0.4,1.8-0.9
	c0.4-0.4,0.7-1,0.7-1.6c0-0.6-0.1-1.2-0.5-1.7L18.7,17l1.8-2.7c0.3-0.5,0.5-1.1,0.5-1.7c0-0.6-0.3-1.2-0.7-1.6
	c-0.5-0.5-1.1-0.8-1.7-0.9V7.7c4.9,0.3,8.8,4.3,8.8,9.3c0,5-3.9,9-8.8,9.3L18.5,23.8L18.5,23.8z M18,29.3c-6.6,0-11.9-5.1-12.3-11.6
	h1.7c0.4,5.5,5,9.9,10.6,9.9c5.6,0,10.2-4.4,10.6-9.9h1.7C29.9,24.1,24.6,29.3,18,29.3L18,29.3z M18.1,11.1L18.1,11.1
	c0.5,0,1.1,0.2,1.5,0.6c0.2,0.3,0.4,0.6,0.4,1c0,0.4-0.1,0.7-0.3,1l-1.6,2.4l-1.6-2.4v0c-0.2-0.3-0.3-0.6-0.3-1c0-0.4,0.2-0.7,0.4-1
	C17,11.4,17.6,11.1,18.1,11.1L18.1,11.1z M18.1,22.8L18.1,22.8c-0.5,0-1.1-0.2-1.5-0.6c-0.2-0.3-0.4-0.6-0.4-1c0-0.4,0.1-0.7,0.3-1
	l1.6-2.4l1.6,2.4v0c0.2,0.3,0.3,0.6,0.3,1c0,0.4-0.2,0.7-0.4,1C19.2,22.6,18.7,22.8,18.1,22.8L18.1,22.8z M12,18.4
	c-0.5,0.2-0.8,0.7-0.7,1.2c0.1,0.5,0.5,0.9,0.9,0.9c0.5,0.1,1-0.2,1.2-0.7c0.2-0.4,0.1-0.9-0.2-1.2C12.9,18.3,12.4,18.2,12,18.4
	L12,18.4z M25,15.3c-0.2,0.5-0.7,0.8-1.2,0.7h0c-0.5-0.1-0.9-0.5-0.9-0.9c-0.1-0.5,0.2-1,0.7-1.2c0.4-0.2,0.9-0.1,1.2,0.2
	C25.1,14.3,25.2,14.8,25,15.3z M11.4,15c0.1,0.5,0.5,0.9,0.9,0.9c0.5,0.1,1-0.2,1.2-0.7c0.2-0.4,0.1-0.9-0.2-1.2
	c-0.3-0.3-0.8-0.4-1.2-0.2C11.6,14,11.3,14.5,11.4,15L11.4,15z M23.2,18.5c0.4-0.2,0.9-0.1,1.2,0.2h0c0.3,0.3,0.4,0.8,0.2,1.2
	c-0.2,0.5-0.7,0.8-1.2,0.7c-0.5-0.1-0.9-0.5-0.9-0.9C22.4,19.2,22.7,18.7,23.2,18.5z"/>
</svg>
