<?xml version="1.0" encoding="utf-8"?>
<!-- Generator: Adobe Illustrator 27.0.0, SVG Export Plug-In . SVG Version: 6.00 Build 0)  -->
<svg version="1.1" id="Layer_1" xmlns="http://www.w3.org/2000/svg" xmlns:xlink="http://www.w3.org/1999/xlink" x="0px" y="0px"
	 viewBox="0 0 33 28" style="enable-background:new 0 0 33 28;" xml:space="preserve">
<style type="text/css">
	.st0{fill-rule:evenodd;clip-rule:evenodd;fill:#FFFFFF;}
</style>
<path class="st0" d="M11,7L8.7,7.2l0,0c-0.2,0-0.3-0.1-0.4-0.2C8.2,6.8,8.3,6.6,8.4,6.5l5.1-5.7c0.1-0.1,0.3-0.2,0.5-0.1
	c0.2,0.1,0.3,0.3,0.2,0.4l-0.8,3.3l2.1,0.3c0.1,0,0.3,0.1,0.3,0.3c0.1,0.1,0,0.3-0.1,0.4l-5.1,6c-0.1,0.1-0.2,0.1-0.3,0.1
	c-0.1,0-0.1,0-0.2,0C10.1,11.4,10,11.2,10,11L11,7z M18.1,19c0.7-3.2,3.5-5.6,6.9-5.6c3.9,0,7,3.1,7,7c0,3.9-3.2,7-7,7
	s-6.9-3.1-7-6.8c-0.5-0.3-1.1-0.5-1.7-0.5c-0.6,0-1.2,0.2-1.7,0.5c-0.1,3.8-3.1,6.8-7,6.8s-7-3.2-7-7c0-3.9,3.2-7,7-7
	c3.4,0,6.2,2.4,6.9,5.6c0.6-0.2,1.2-0.4,1.8-0.4C16.9,18.6,17.5,18.7,18.1,19z M2,20.4c0,3.1,2.5,5.5,5.5,5.5s5.5-2.5,5.5-5.5
	s-2.5-5.5-5.5-5.5S2,17.4,2,20.4z M19.4,20.4c0,3.1,2.5,5.5,5.5,5.5s5.5-2.5,5.5-5.5s-2.5-5.5-5.5-5.5S19.4,17.4,19.4,20.4z
	 M22.9,16.8c1.2-0.7,2.6-0.8,3.9-0.4c0.4,0.1,0.5,0.5,0.4,0.9c-0.1,0.4-0.5,0.5-0.9,0.4c-0.9-0.3-2-0.2-2.8,0.3
	c-0.1,0.1-0.2,0.1-0.3,0.1c-0.2,0-0.5-0.1-0.6-0.3C22.4,17.4,22.5,17,22.9,16.8z M22.2,18.3c-0.3-0.2-0.7-0.1-0.9,0.2
	c-0.2,0.3-0.2,0.4-0.3,0.6c0,0,0,0,0,0c0,0,0,0.1,0,0.1c-0.1,0.4,0.1,0.7,0.4,0.9c0.1,0,0.1,0,0.2,0c0.3,0,0.5-0.2,0.6-0.5
	c0,0,0-0.1,0-0.1c0,0,0-0.1,0-0.1c0-0.1,0.1-0.2,0.2-0.3C22.5,19,22.5,18.6,22.2,18.3L22.2,18.3z"/>
</svg>
