<svg xmlns="http://www.w3.org/2000/svg" xmlns:xlink="http://www.w3.org/1999/xlink" viewBox="0 0 400 400" width="400" height="400" preserveAspectRatio="xMidYMid meet" style="width: 100%; height: 100%; transform: translate3d(0px, 0px, 0px); content-visibility: visible;"><defs><clipPath id="__lottie_element_182"><rect width="400" height="400" x="0" y="0"></rect></clipPath></defs><g clip-path="url(#__lottie_element_182)"><g transform="matrix(4.269999980926514,0,0,4.269999980926514,68.52012634277344,48.50282287597656)" opacity="1" style="display: block;"><path fill="rgb(98, 136, 183)" fill-opacity="1" d=" M27.295000076293945,46.51599884033203 C27.29599952697754,46.512001037597656 27.298999786376953,46.507999420166016 27.302000045776367,46.50400161743164 C27.302000045776367,46.50400161743164 34.42599868774414,39.09600067138672 34.42599868774414,39.09600067138672 C34.43199920654297,39.090999603271484 34.4379997253418,39.08599853515625 34.44599914550781,39.08300018310547 C34.44599914550781,39.08300018310547 34.45899963378906,39.07899856567383 34.45899963378906,39.07899856567383 C35.500999450683594,38.74100112915039 36.19200134277344,38.51599884033203 37.21099853515625,37.60900115966797 C38.066001892089844,36.84700012207031 38.46099853515625,36.183998107910156 38.70899963378906,35.314998626708984 C38.87099838256836,34.74800109863281 39.125999450683594,34.20600128173828 39.53499984741211,33.78099822998047 C39.53499984741211,33.78099822998047 46.11800003051758,26.93400001525879 46.11800003051758,26.93400001525879 C46.11800003051758,26.93400001525879 46.20000076293945,26.847999572753906 46.20000076293945,26.847999572753906 C46.20899963378906,26.839000701904297 46.21699905395508,26.82900047302246 46.224998474121094,26.81800079345703 C46.224998474121094,26.81800079345703 46.292999267578125,26.719999313354492 46.292999267578125,26.719999313354492 C46.720001220703125,26.104999542236328 47.034000396728516,24.341999053955078 45.698001861572266,22.95199966430664 C44.7760009765625,21.993000030517578 43.30099868774414,21.792999267578125 42.814998626708984,21.792999267578125 C42.470001220703125,21.792999267578125 42.2130012512207,21.861000061035156 42.0880012512207,21.902000427246094 C42.0880012512207,21.902000427246094 41.75899887084961,22.01099967956543 41.75899887084961,22.01099967956543 C41.72600173950195,22.02199935913086 41.69599914550781,22.038999557495117 41.66999816894531,22.062999725341797 C41.66999816894531,22.062999725341797 41.422000885009766,22.305999755859375 41.422000885009766,22.305999755859375 C41.422000885009766,22.305999755859375 34.47800064086914,29.118000030517578 34.47800064086914,29.118000030517578 C34.07600021362305,29.511999130249023 33.564998626708984,29.76799964904785 33.02899932861328,29.94300079345703 C32.108001708984375,30.2450008392334 31.576000213623047,30.652999877929688 30.87700080871582,31.343000411987305 C30.131000518798828,32.07899856567383 29.816999435424805,32.691001892089844 29.558000564575195,33.44200134277344 C29.39299964904785,33.91699981689453 29.13800048828125,34.35599899291992 28.77899932861328,34.70800018310547 C28.77899932861328,34.70800018310547 22.566999435424805,40.80099868774414 22.566999435424805,40.80099868774414 C22.160999298095703,41.20000076293945 21.645000457763672,41.46200180053711 21.099000930786133,41.625 C19.9060001373291,41.97999954223633 19.052000045776367,42.505001068115234 18.158000946044922,43.400001525878906 C17.135000228881836,44.422000885009766 16.788000106811523,45.46900177001953 16.420000076293945,46.58000183105469 C16.420000076293945,46.58000183105469 16.378999710083008,46.70199966430664 16.378999710083008,46.70199966430664 C16.323999404907227,46.86800003051758 16.229999542236328,47.018001556396484 16.104999542236328,47.14099884033203 C16.104999542236328,47.14099884033203 4.39300012588501,58.61800003051758 4.39300012588501,58.61800003051758 C4.203000068664551,58.805999755859375 4.0980000495910645,59.055999755859375 4.099999904632568,59.32699966430664 C4.103000164031982,59.595001220703125 4.214000225067139,59.84400177001953 4.408999919891357,60.02799987792969 C4.591000080108643,60.19900131225586 4.827000141143799,60.29199981689453 5.074999809265137,60.29199981689453 C5.322000026702881,60.29199981689453 5.574999809265137,60.19200134277344 5.758999824523926,60.01300048828125 C5.758999824523926,60.01300048828125 17.941999435424805,48.0629997253418 17.941999435424805,48.0629997253418 C17.965999603271484,48.03900146484375 17.983999252319336,48.0099983215332 17.996000289916992,47.979000091552734 C17.996000289916992,47.979000091552734 17.996000289916992,47.97700119018555 17.996000289916992,47.97700119018555 C18.089000701904297,47.720001220703125 18.167999267578125,47.48099899291992 18.243999481201172,47.250999450683594 C18.243999481201172,47.250999450683594 18.261999130249023,47.19499969482422 18.261999130249023,47.19499969482422 C18.5939998626709,46.19599914550781 18.834999084472656,45.4739990234375 19.530000686645508,44.77799987792969 C20.43199920654297,43.875999450683594 21.200000762939453,43.51499938964844 22.815000534057617,43.22700119018555 C22.858999252319336,43.21900177001953 22.899999618530273,43.198001861572266 22.93199920654297,43.16699981689453 C22.93199920654297,43.16699981689453 22.933000564575195,43.165000915527344 22.933000564575195,43.165000915527344 C22.933000564575195,43.165000915527344 30.9950008392334,35.257999420166016 30.9950008392334,35.257999420166016 C30.9950008392334,35.257999420166016 30.996000289916992,35.25699996948242 30.996000289916992,35.25699996948242 C31.02199935913086,35.22999954223633 31.04199981689453,35.198001861572266 31.052000045776367,35.1619987487793 C31.086999893188477,35.053001403808594 31.118000030517578,34.948001861572266 31.14699935913086,34.8489990234375 C31.14699935913086,34.8489990234375 31.148000717163086,34.8489990234375 31.148000717163086,34.8489990234375 C31.148000717163086,34.8489990234375 31.163000106811523,34.79600143432617 31.163000106811523,34.79600143432617 C31.163000106811523,34.79600143432617 31.166000366210938,34.7869987487793 31.166000366210938,34.7869987487793 C31.49799919128418,33.69300079345703 31.599000930786133,33.35900115966797 32.236000061035156,32.73400115966797 C32.92399978637695,32.05699920654297 33.23699951171875,31.80900001525879 34.73400115966797,31.534000396728516 C34.77899932861328,31.527000427246094 34.81999969482422,31.506000518798828 34.85300064086914,31.475000381469727 C34.85300064086914,31.475000381469727 42.672000885009766,23.80500030517578 42.672000885009766,23.80500030517578 C42.70899963378906,23.768999099731445 42.75699996948242,23.743999481201172 42.80799865722656,23.743999481201172 C42.83000183105469,23.743999481201172 42.85599899291992,23.742000579833984 42.887001037597656,23.739999771118164 C43.111000061035156,23.724000930786133 43.57699966430664,23.68899917602539 44.1510009765625,24.261999130249023 C44.50699996948242,24.618000030517578 44.650001525878906,24.940000534057617 44.70100021362305,25.180999755859375 C44.7599983215332,25.464000701904297 44.59000015258789,25.718000411987305 44.388999938964844,25.927000045776367 C44.388999938964844,25.927000045776367 37.13600158691406,33.47200012207031 37.13600158691406,33.47200012207031 C37.10300064086914,33.50400161743164 37.082000732421875,33.547000885009766 37.07400131225586,33.59199905395508 C36.8380012512207,35.01900100708008 36.74300003051758,35.42100143432617 35.9109992980957,36.1619987487793 C35.19900131225586,36.797000885009766 34.82899856567383,36.91699981689453 33.85499954223633,37.23400115966797 C33.85499954223633,37.23400115966797 33.8390007019043,37.237998962402344 33.8390007019043,37.237998962402344 C33.757999420166016,37.26599884033203 33.67100143432617,37.29399871826172 33.58100128173828,37.323001861572266 C33.58100128173828,37.323001861572266 33.41699981689453,37.37699890136719 33.41699981689453,37.37699890136719 C33.41699981689453,37.37699890136719 33.41600036621094,37.37699890136719 33.41600036621094,37.37699890136719 C33.38100051879883,37.388999938964844 33.3489990234375,37.409000396728516 33.32400131225586,37.43600082397461 C33.32400131225586,37.43600082397461 25.538999557495117,45.53499984741211 25.538999557495117,45.53499984741211 C25.506999969482422,45.56800079345703 25.48699951171875,45.60900115966797 25.479000091552734,45.65299987792969 C25.204999923706055,47.24100112915039 24.791000366210938,48.14099884033203 23.957000732421875,48.9739990234375 C23.143999099731445,49.7869987487793 22.052000045776367,50.13100051879883 20.78499984741211,50.52899932861328 C20.78499984741211,50.52899932861328 20.77199935913086,50.53300094604492 20.77199935913086,50.53300094604492 C20.73699951171875,50.54499816894531 20.70400047302246,50.564998626708984 20.677000045776367,50.59199905395508 C20.677000045776367,50.59199905395508 8.630000114440918,63.12300109863281 8.630000114440918,63.12300109863281 C8.267000198364258,63.5 8.270999908447266,64.10800170898438 8.640999794006348,64.48100280761719 C8.824999809265137,64.66699981689453 9.071000099182129,64.76699829101562 9.331999778747559,64.76699829101562 C9.593000411987305,64.76699829101562 9.847999572753906,64.66100311279297 10.031999588012695,64.47000122070312 C10.031999588012695,64.47000122070312 21.250999450683594,52.801998138427734 21.250999450683594,52.801998138427734 C21.59600067138672,52.44300079345703 22.027000427246094,52.180999755859375 22.496000289916992,52.01300048828125 C23.5,51.65399932861328 24.5,51.18299865722656 25.333999633789062,50.3489990234375 C26.354000091552734,49.32899856567383 26.941999435424805,48.180999755859375 27.295000076293945,46.51599884033203z"></path></g><g transform="matrix(4.269999980926514,-0.00001252014499186771,0.00001252014499186771,4.269999980926514,68.51969909667969,48.50325393676758)" opacity="1" style="display: block;"><path fill="rgb(98, 136, 183)" fill-opacity="1" d=" M36.93600082397461,9.5649995803833 C36.948001861572266,9.690999984741211 37.051998138427734,9.791000366210938 37.17900085449219,9.791000366210938 C37.305999755859375,9.791000366210938 37.40999984741211,9.690999984741211 37.42100143432617,9.5649995803833 C37.606998443603516,7.520999908447266 39.03099822998047,5.800000190734863 41.02000045776367,5.238999843597412 C41.2400016784668,5.177000045776367 41.2400016784668,4.864999771118164 41.02000045776367,4.802999973297119 C39.03099822998047,4.242000102996826 37.608001708984375,2.5179998874664307 37.42100143432617,0.47699999809265137 C37.40999984741211,0.3499999940395355 37.305999755859375,0.25 37.17900085449219,0.25 C37.051998138427734,0.25 36.948001861572266,0.3499999940395355 36.93600082397461,0.47699999809265137 C36.75,2.5199999809265137 35.32699966430664,4.242000102996826 33.33700180053711,4.802999973297119 C33.117000579833984,4.864999771118164 33.117000579833984,5.177000045776367 33.33700180053711,5.238999843597412 C35.32699966430664,5.800000190734863 36.75,7.5229997634887695 36.93600082397461,9.5649995803833z M0.25,42.18899917602539 C0.25,40.97100067138672 1.2400000095367432,39.97800064086914 2.4600000381469727,39.97800064086914 C3.677999973297119,39.97800064086914 4.670000076293945,40.97100067138672 4.670000076293945,42.18899917602539 C4.670000076293945,43.40599822998047 3.677999973297119,44.39899826049805 2.4600000381469727,44.39899826049805 C1.2419999837875366,44.39899826049805 0.25,43.40599822998047 0.25,42.18899917602539z M48.90800094604492,7.609000205993652 C48.90800094604492,8.246999740600586 48.38999938964844,8.765000343322754 47.750999450683594,8.765000343322754 C47.112998962402344,8.765000343322754 46.595001220703125,8.246999740600586 46.595001220703125,7.609000205993652 C46.595001220703125,6.96999979019165 47.112998962402344,6.452000141143799 47.750999450683594,6.452000141143799 C48.38999938964844,6.452000141143799 48.90800094604492,6.96999979019165 48.90800094604492,7.609000205993652z M63.8489990234375,45.90999984741211 C63.97600173950195,45.90999984741211 64.08000183105469,46.0099983215332 64.09200286865234,46.137001037597656 C64.27799987792969,48.178001403808594 65.70099639892578,49.902000427246094 67.69000244140625,50.46200180053711 C67.91100311279297,50.525001525878906 67.91100311279297,50.83700180053711 67.69000244140625,50.89899826049805 C65.70099639892578,51.459999084472656 64.27799987792969,53.180999755859375 64.09200286865234,55.2239990234375 C64.08000183105469,55.35100173950195 63.97600173950195,55.45100021362305 63.8489990234375,55.45100021362305 C63.72200012207031,55.45100021362305 63.61800003051758,55.35100173950195 63.60599899291992,55.2239990234375 C63.41999816894531,53.18299865722656 61.99700164794922,51.459999084472656 60.00699996948242,50.89899826049805 C59.7869987487793,50.83700180053711 59.7869987487793,50.525001525878906 60.00699996948242,50.46200180053711 C61.99700164794922,49.902000427246094 63.41999816894531,48.18000030517578 63.60599899291992,46.137001037597656 C63.61800003051758,46.0099983215332 63.72200012207031,45.90999984741211 63.8489990234375,45.90999984741211z"></path><g opacity="1" transform="matrix(1,0,0,1,0,0)"></g><g opacity="1" transform="matrix(1,0,0,1,0,0)"></g><g opacity="1" transform="matrix(1,0,0,1,0,0)"></g><g opacity="1" transform="matrix(1,0,0,1,0,0)"></g></g><g transform="matrix(1,-0.0000029321183774300152,0.0000029321183774300152,1,221.00009155273438,224.99998474121094)" opacity="1" style="display: block;"><g opacity="1" transform="matrix(1,0,0,1,-10.663999557495117,-25.663999557495117)"><path stroke-linecap="round" stroke-linejoin="miter" fill-opacity="0" stroke-miterlimit="4" stroke="rgb(98, 136, 183)" stroke-opacity="1" stroke-width="8" d=" M-135.79400634765625,-7.556000232696533 C-132.4250030517578,-69.06800079345703 -88.18099975585938,-119.69499969482422 -29.757999420166016,-132.73500061035156"></path></g><g opacity="1" transform="matrix(1,0,0,1,-10.663999557495117,-25.663999557495117)"><path stroke-linecap="round" stroke-linejoin="miter" fill-opacity="0" stroke-miterlimit="4" stroke="rgb(98, 136, 183)" stroke-opacity="1" stroke-width="8" d=" M95.33000183105469,-96.99600219726562 C118.35800170898438,-74.36100006103516 133.36199951171875,-43.5890007019043 135.68499755859375,-9.336999893188477"></path></g><g opacity="1" transform="matrix(1,0,0,1,-10.663999557495117,-25.663999557495117)"><path stroke-linecap="round" stroke-linejoin="miter" fill-opacity="0" stroke-miterlimit="4" stroke="rgb(98, 136, 183)" stroke-opacity="1" stroke-width="8" d=" M80.91200256347656,109.3239974975586 C58.30099868774414,126.08599853515625 30.308000564575195,136 0,136 C-12.793000221252441,136 -25.173999786376953,134.23300170898438 -36.9109992980957,130.93099975585938"></path></g></g><g transform="matrix(4.269999980926514,0,0,4.269999980926514,68.5201187133789,48.50282287597656)" opacity="1" style="display: block;"><path fill="rgb(98, 136, 183)" fill-opacity="1" d=" M19.202999114990234,16.910999298095703 C19.202999114990234,16.273000717163086 18.684999465942383,15.755000114440918 18.04599952697754,15.755000114440918 C17.408000946044922,15.755000114440918 16.889999389648438,16.273000717163086 16.889999389648438,16.910999298095703 C16.889999389648438,17.548999786376953 17.408000946044922,18.06800079345703 18.04599952697754,18.06800079345703 C18.684999465942383,18.06800079345703 19.202999114990234,17.548999786376953 19.202999114990234,16.910999298095703z M29.472999572753906,55.7400016784668 C29.472999572753906,56.37799835205078 28.954999923706055,56.895999908447266 28.316999435424805,56.895999908447266 C27.67799949645996,56.895999908447266 27.160999298095703,56.37799835205078 27.160999298095703,55.7400016784668 C27.160999298095703,55.10100173950195 27.67799949645996,54.58300018310547 28.316999435424805,54.58300018310547 C28.954999923706055,54.58300018310547 29.472999572753906,55.10100173950195 29.472999572753906,55.7400016784668z"></path><g opacity="1" transform="matrix(1,0,0,1,0,0)"></g><g opacity="1" transform="matrix(1,0,0,1,0,0)"></g></g><g transform="matrix(1,0,0,1,193,193)" opacity="1" style="display: block;"><g opacity="1" transform="matrix(1,0,0,1,17.506000518798828,6.50600004196167)"><path stroke-linecap="round" stroke-linejoin="miter" fill-opacity="0" stroke-miterlimit="4" stroke="rgb(98, 136, 183)" stroke-opacity="1" stroke-width="8" d=" M-93.07599639892578,41.80099868774414 C-98.81400299072266,29.04400062561035 -102.00599670410156,14.895000457763672 -102.00599670410156,0 C-102.00599670410156,-19.746999740600586 -96.39399719238281,-38.183998107910156 -86.67900085449219,-53.803001403808594"></path></g><g opacity="1" transform="matrix(1,0,0,1,17.506000518798828,6.50600004196167)"><path stroke-linecap="round" stroke-linejoin="miter" fill-opacity="0" stroke-miterlimit="4" stroke="rgb(98, 136, 183)" stroke-opacity="1" stroke-width="8" d=" M67.76300048828125,-76.24700164794922 C88.77100372314453,-57.5629997253418 102.00599670410156,-30.32699966430664 102.00599670410156,0 C102.00599670410156,48.60599899291992 68.01000213623047,89.27100372314453 22.499000549316406,99.51599884033203"></path></g></g><g transform="matrix(4.269999980926514,0,0,4.269999980926514,68.52012634277344,48.50282287597656)" opacity="1" style="display: block;"><path fill="rgb(98, 136, 183)" fill-opacity="1" d=" M35.736000061035156,46.91600036621094 C35.736000061035156,48.13600158691406 36.729000091552734,49.125999450683594 37.946998596191406,49.125999450683594 C39.16400146484375,49.125999450683594 40.15700149536133,48.132999420166016 40.15700149536133,46.91600036621094 C40.15700149536133,45.698001861572266 39.16400146484375,44.70600128173828 37.946998596191406,44.70600128173828 C36.729000091552734,44.70600128173828 35.736000061035156,45.698001861572266 35.736000061035156,46.91600036621094z"></path><g opacity="1" transform="matrix(1,0,0,1,0,0)"></g></g><g transform="matrix(1,0,0,1,198.5,200.5)" opacity="1" style="display: block;"><g opacity="1" transform="matrix(1,0,0,1,11.696000099182129,-4.303999900817871)"><path stroke-linecap="round" stroke-linejoin="miter" fill-opacity="0" stroke-miterlimit="4" stroke="rgb(98, 136, 183)" stroke-opacity="1" stroke-width="8" d=" M-66.87000274658203,9.258999824523926 C-67.28500366210938,6.23199987411499 -67.5,3.1410000324249268 -67.5,0 C-67.5,-37.27899932861328 -37.27899932861328,-67.5 0,-67.5 C3.5309998989105225,-67.5 6.998000144958496,-67.22799682617188 10.381999969482422,-66.70600128173828"></path></g><g opacity="1" transform="matrix(1,0,0,1,11.696000099182129,-4.303999900817871)"><path stroke-linecap="round" stroke-linejoin="miter" fill-opacity="0" stroke-miterlimit="4" stroke="rgb(98, 136, 183)" stroke-opacity="1" stroke-width="8" d=" M66.80899810791016,-9.696999549865723 C67.26499938964844,-6.53000020980835 67.5,-3.2929999828338623 67.5,0 C67.5,13.289999961853027 63.65999984741211,25.68199920654297 57.02799987792969,36.12799835205078"></path></g></g></g></svg>