<?xml version="1.0" encoding="utf-8"?>
<!-- Generator: Adobe Illustrator 27.0.0, SVG Export Plug-In . SVG Version: 6.00 Build 0)  -->
<svg version="1.1" id="Layer_2" xmlns="http://www.w3.org/2000/svg" xmlns:xlink="http://www.w3.org/1999/xlink" x="0px" y="0px"
	 viewBox="0 0 17 31" style="enable-background:new 0 0 17 31;" xml:space="preserve">
<style type="text/css">
	.st0{fill:#FFFFFF;}
</style>
<path class="st0" d="M16.6,11.7C16.6,11.7,16.6,11.7,16.6,11.7c-0.1-0.1-0.1-0.1-0.1-0.2l0,0l0,0l0,0L9.9,6.3l0,0h0V1.3
	c0-0.3-0.2-0.5-0.5-0.5C9,0.8,8.8,1,8.8,1.3v0.2C8,1.7,6.1,2.2,5.1,1.6C2.6,0.2,0.3,1.7,0.3,1.9C0.4,2.1,1.8,2.7,1.8,3
	c0,0.3-1.5,2.1-1.2,2.1c0.7,0,2-0.6,3-0.5c1.3,0.2,1.4,0.6,2.5,0.7c0.8,0,1.8,0,2.7-0.2v1.1h0l0,0l-6.5,5.2c0,0,0,0,0,0
	c0,0-0.1,0.1-0.1,0.1c0,0,0,0,0,0.1c0,0.1-0.1,0.2-0.1,0.3v17.6c0,0.3,0.3,0.6,0.7,0.6H16c0.4,0,0.7-0.3,0.7-0.6V12
	C16.7,11.9,16.6,11.8,16.6,11.7L16.6,11.7z M8.6,25.4v3.6H3.2v-3.6H8.6L8.6,25.4z M8.6,20.6v3.5H3.2v-3.5H8.6L8.6,20.6z M4.4,11.3
	l4.9-3.9l4.9,3.9H4.4z M15.4,20.6v3.5H10v-3.5H15.4z M15.4,12.6v6.7H3.2v-6.7H15.4z M15.4,25.4v3.6H10v-3.6H15.4z"/>
</svg>
