<?xml version="1.0" encoding="utf-8"?>
<!-- Generator: Adobe Illustrator 27.0.0, SVG Export Plug-In . SVG Version: 6.00 Build 0)  -->
<svg version="1.1" id="Layer_3" xmlns="http://www.w3.org/2000/svg" xmlns:xlink="http://www.w3.org/1999/xlink" x="0px" y="0px"
	 viewBox="0 0 36 30" style="enable-background:new 0 0 36 30;" xml:space="preserve">
<style type="text/css">
	.st0{fill-rule:evenodd;clip-rule:evenodd;fill:rgb(145, 132, 120);}
</style>
<path class="st0" d="M34.5,4.6c-1.4-0.4-2.4-1.7-2.5-3.2c0-0.1-0.1-0.2-0.2-0.2c-0.1,0-0.2,0.1-0.2,0.2c-0.1,1.5-1.1,2.7-2.5,3.2
	c-0.1,0-0.2,0.1-0.2,0.2C28.9,4.9,29,5,29.1,5c1.4,0.4,2.4,1.7,2.5,3.2c0,0.1,0.1,0.2,0.2,0.2c0.1,0,0.2-0.1,0.2-0.2
	c0.1-1.5,1.1-2.7,2.5-3.2c0.1,0,0.2-0.1,0.2-0.2C34.7,4.7,34.6,4.6,34.5,4.6z M18.2,2.2C12,2.2,7,7.2,7,13.4c0,2.8,1,5.5,2.9,7.5
	c-0.1,0.2-0.1,0.4-0.1,0.7c0,0.5,0.2,1,0.6,1.4c0,0.1-0.1,0.1-0.1,0.2c-0.9,0.3-1.6,0.9-1.8,1.7c-0.3,0.8-0.1,1.7,0.6,2.6
	c0,0,0.1,0.1,0.1,0.1c1.1,0.9,5.9,1.8,9,1.8h0h0.1c3.4,0,7.4-1.1,8.8-1.7c0.2-0.1,0.3-0.2,0.4-0.4c0.4-1,0.5-1.8,0.2-2.4
	c-0.3-0.8-1-1.3-1.6-1.5c0-0.1-0.1-0.2-0.1-0.3c0.4-0.4,0.7-0.9,0.7-1.5c0-0.2,0-0.3-0.1-0.5c1.9-2.1,3-4.8,3-7.6
	C29.4,7.2,24.4,2.2,18.2,2.2L18.2,2.2z M11,21.6c0-0.4,0.3-0.7,0.7-0.7c0.4,0,0.7,0.3,0.7,0.7c0,0.2-0.1,0.4-0.2,0.5
	c-0.2,0-0.3,0.1-0.5,0.2C11.3,22.2,11,21.9,11,21.6L11,21.6z M11.4,23.6c0.1-0.2,0.3-0.4,0.5-0.5c0.2,0,0.4-0.1,0.6-0.2
	c0,0,0.1,0,0.1,0c0.1,0,0.1,0,0.2-0.1c1.1,0.6,2.2,1,3.4,1.2l0,0c0.3,0.6,0.9,1,1.6,1c0.6,0,1.2-0.3,1.5-0.8c1.3-0.1,3-0.7,4.3-1.3
	c1.1,0.5,1.4,0.9,1,2c-1.1,0.5-4.1,1.3-6.5,1.3c-2.7,0-6-0.8-6.5-1.3C11.4,24.4,11.3,23.9,11.4,23.6L11.4,23.6z M16.9,23.1
	c0-0.5,0.4-0.9,0.9-0.9c0.5,0,0.9,0.4,0.9,0.9c0,0.5-0.4,0.9-0.9,0.9C17.3,24.1,16.9,23.6,16.9,23.1z M24.6,22.1
	c-0.4,0-0.7-0.3-0.7-0.7c0-0.4,0.3-0.7,0.7-0.7c0.4,0,0.7,0.3,0.7,0.7C25.2,21.8,24.9,22.1,24.6,22.1z M24.6,19.9
	c-0.8,0-1.5,0.7-1.5,1.5c0,0.2,0,0.4,0.1,0.6c-1,0.5-2.4,1-3.6,1.1c0,0,0,0,0,0c0,0,0,0,0,0c0-1-0.8-1.8-1.8-1.8
	c-1,0-1.7,0.8-1.8,1.7c-1-0.2-2-0.6-2.9-1.1c0-0.1,0-0.2,0-0.4c0-0.8-0.7-1.5-1.5-1.5c-0.2,0-0.5,0.1-0.7,0.2
	c-1.8-1.8-2.7-4.3-2.7-6.9c0-5.5,4.5-9.9,9.9-9.9c5.5,0,9.9,4.5,9.9,9.9c0,2.5-1,5-2.7,6.8C25.2,20,24.9,19.9,24.6,19.9L24.6,19.9z
	 M9.6,25.2c0.1-0.4,0.5-0.7,0.9-0.8c0.1,0.3,0.2,0.7,0.5,1c0,0,0,0,0.1,0.1c0.7,0.7,4.5,1.5,7.1,1.5h0h0h0c2.7,0,5.9-0.9,7-1.4
	c0.1,0,0.2-0.1,0.2-0.2c0.1-0.3,0.2-0.6,0.2-0.8c0.4,0.2,0.7,0.5,0.8,0.7c0.1,0.3,0.1,0.8-0.1,1.3C24.9,27,21.1,28,18.1,28
	c-3.2,0-7.4-0.9-8.1-1.5C9.6,26,9.5,25.6,9.6,25.2L9.6,25.2z M16.5,5.3c-2.1,0.6-3.8,2-5,3.9c-0.2,0.3-0.1,0.7,0.2,0.9
	c0.1,0.1,0.2,0.1,0.3,0.1c0.2,0,0.4-0.1,0.6-0.3c0.9-1.6,2.4-2.8,4.2-3.3c0.4-0.1,0.5-0.5,0.4-0.8C17.3,5.4,16.9,5.2,16.5,5.3
	L16.5,5.3z M10.6,11.6c0.1-0.4,0.5-0.6,0.8-0.5h0c0.4,0.1,0.6,0.5,0.5,0.8c-0.2,0.6-0.2,1.2-0.2,1.9c0,0.1,0,0.2,0,0.4
	c0,0.4-0.3,0.7-0.6,0.7h0c-0.4,0-0.6-0.3-0.7-0.6c0-0.1,0-0.3,0-0.4C10.3,13,10.4,12.3,10.6,11.6z M3.8,16.6
	c0.1,1.1,0.8,2.1,1.9,2.4c0.1,0,0.2,0.1,0.2,0.2c0,0.1-0.1,0.2-0.2,0.2c-1.1,0.3-1.9,1.3-1.9,2.4c0,0.1-0.1,0.2-0.2,0.2
	s-0.2-0.1-0.2-0.2c-0.1-1.1-0.8-2.1-1.9-2.4c-0.1,0-0.2-0.1-0.2-0.2c0-0.1,0.1-0.2,0.2-0.2c1.1-0.3,1.9-1.3,1.9-2.4
	c0-0.1,0.1-0.2,0.2-0.2S3.8,16.5,3.8,16.6z"/>
</svg>
