<svg width="40" height="40" viewBox="0 0 40 40" xmlns="http://www.w3.org/2000/svg">
  <path stroke-linecap="butt" stroke-linejoin="miter" fill-opacity="0" stroke-miterlimit="4" stroke="rgb(249,244,242)" stroke-opacity="1" stroke-width="1.802" d="M16.7,1.8 C16.7,1.8 20.3,1.8 20.3,1.8 C21.4,1.8 22.3,2.7 22.3,3.8 C22.3,3.8 22.3,7.4 22.3,7.4 C22.3,8.5 21.4,9.4 20.3,9.4 C20.3,9.4 16.7,9.4 16.7,9.4 C15.6,9.4 14.7,8.5 14.7,7.4 C14.7,7.4 14.7,3.8 14.7,3.8 C14.7,2.7 15.6,1.8 16.7,1.8z M3.8,1.8 C3.8,1.8 7.4,1.8 7.4,1.8 C8.5,1.8 9.4,2.7 9.4,3.8 C9.4,3.8 9.4,7.4 9.4,7.4 C9.4,8.5 8.5,9.4 7.4,9.4 C7.4,9.4 3.8,9.4 3.8,9.4 C2.7,9.4 1.8,8.5 1.8,7.4 C1.8,7.4 1.8,3.8 1.8,3.8 C1.8,2.7 2.7,1.8 3.8,1.8z M3.8,14.7 C3.8,14.7 7.4,14.7 7.4,14.7 C8.5,14.7 9.4,15.6 9.4,16.7 C9.4,16.7 9.4,20.3 9.4,20.3 C9.4,21.4 8.5,22.3 7.4,22.3 C7.4,22.3 3.8,22.3 3.8,22.3 C2.7,22.3 1.8,21.4 1.8,20.3 C1.8,20.3 1.8,16.7 1.8,16.7 C1.8,15.6 2.7,14.7 3.8,14.7z M29.7,1.8 C29.7,1.8 33.3,1.8 33.3,1.8 C34.4,1.8 35.3,2.7 35.3,3.8 C35.3,3.8 35.3,7.4 35.3,7.4 C35.3,8.5 34.4,9.4 33.3,9.4 C33.3,9.4 29.7,9.4 29.7,9.4 C28.6,9.4 27.7,8.5 27.7,7.4 C27.7,7.4 27.7,3.8 27.7,3.8 C27.7,2.7 28.6,1.8 29.7,1.8z M22.3,16.7 C22.3,16.7 22.3,20.3 22.3,20.3 C22.3,21.4 21.4,22.3 20.3,22.3 C20.3,22.3 16.7,22.3 16.7,22.3 C15.6,22.3 14.7,21.4 14.7,20.3 C14.7,20.3 14.7,16.7 14.7,16.7 C14.7,15.6 15.6,14.7 16.7,14.7 C16.7,14.7 20.3,14.7 20.3,14.7 C21.4,14.7 22.3,15.6 22.3,16.7z M3.8,27.7 C3.8,27.7 7.4,27.7 7.4,27.7 C8.5,27.7 9.4,28.6 9.4,29.7 C9.4,29.7 9.4,33.3 9.4,33.3 C9.4,34.4 8.5,35.3 7.4,35.3 C7.4,35.3 3.8,35.3 3.8,35.3 C2.7,35.3 1.8,34.4 1.8,33.3 C1.8,33.3 1.8,29.7 1.8,29.7 C1.8,28.6 2.7,27.7 3.8,27.7z M29.7,14.7 C29.7,14.7 33.3,14.7 33.3,14.7 C34.4,14.7 35.3,15.6 35.3,16.7 C35.3,16.7 35.3,20.3 35.3,20.3 C35.3,21.4 34.4,22.3 33.3,22.3 C33.3,22.3 29.7,22.3 29.7,22.3 C28.6,22.3 27.7,21.4 27.7,20.3 C27.7,20.3 27.7,16.7 27.7,16.7 C27.7,15.6 28.6,14.7 29.7,14.7z M29.7,27.7 C29.7,27.7 33.3,27.7 33.3,27.7 C34.4,27.7 35.3,28.6 35.3,29.7 C35.3,29.7 35.3,33.3 35.3,33.3 C35.3,34.4 34.4,35.3 33.3,35.3 C33.3,35.3 29.7,35.3 29.7,35.3 C28.6,35.3 27.7,34.4 27.7,33.3 C27.7,33.3 27.7,29.7 27.7,29.7 C27.7,28.6 28.6,27.7 29.7,27.7z M16.7,27.7 C16.7,27.7 20.3,27.7 20.3,27.7 C21.4,27.7 22.3,28.6 22.3,29.7 C22.3,29.7 22.3,33.3 22.3,33.3 C22.3,34.4 21.4,35.3 20.3,35.3 C20.3,35.3 16.7,35.3 16.7,35.3 C15.6,35.3 14.7,34.4 14.7,33.3 C14.7,33.3 14.7,29.7 14.7,29.7 C14.7,28.6 15.6,27.7 16.7,27.7z"></path>
</svg>
