<?xml version="1.0" encoding="utf-8"?>
<!-- Generator: Adobe Illustrator 27.0.0, SVG Export Plug-In . SVG Version: 6.00 Build 0)  -->
<svg version="1.1" id="Layer_2" xmlns="http://www.w3.org/2000/svg" xmlns:xlink="http://www.w3.org/1999/xlink" x="0px" y="0px"
	 viewBox="0 0 26 33" style="enable-background:new 0 0 26 33;" xml:space="preserve">
<style type="text/css">
	.st0{fill-rule:evenodd;clip-rule:evenodd;fill: rgb(129, 138, 91);}
</style>
<path class="st0" d="M24.5,18c-0.7-4-3.5-7.3-7.3-8.7c-0.3-0.1-0.5-0.4-0.5-0.7c0-0.1,0-0.1,0-0.2h0.4c0.6,0,1.2-0.3,1.5-0.8
	c0.4-0.5,0.4-1.1,0.2-1.7c-0.2-0.5-0.5-0.8-0.9-1.1l0.2-1.3c0.1-0.4-0.1-0.8-0.3-1.1c-0.3-0.3-0.7-0.5-1.1-0.5H9.5
	C9,1.9,8.7,2.1,8.4,2.4C8.1,2.7,8,3.1,8.1,3.5l0.2,1.3C7.8,5,7.5,5.4,7.3,5.9C7.1,6.4,7.2,7.1,7.6,7.6c0.3,0.5,0.9,0.8,1.5,0.8h0.4
	c0,0.1,0,0.1,0,0.2c0,0.3-0.2,0.6-0.5,0.7c-3.3,1.2-5.8,3.9-6.9,7.2c-1.1,3.3-0.7,6.9,1.2,9.9c1.8,2.9,4.8,4.8,8.1,5.3v0l0.3,0
	c0.4,0.1,0.9,0.1,1.3,0.1h0c2.8,0,5.6-1,7.7-3C23.8,26.1,25.2,21.9,24.5,18L24.5,18z M8.4,6.5c0-0.4,0.3-0.7,0.7-0.7h8
	c0.4,0,0.7,0.3,0.7,0.7c0,0.4-0.3,0.7-0.7,0.7h-8C8.7,7.2,8.4,6.9,8.4,6.5z M16.9,3.5l-0.3,1.4H9.5L9.2,3.5c0-0.1,0-0.2,0.1-0.3
	C9.4,3,9.5,3,9.6,3h6.9c0.1,0,0.2,0.1,0.3,0.2C16.9,3.2,17,3.4,16.9,3.5z M10.4,9.7c0.2-0.3,0.4-0.7,0.4-1.1c0-0.1,0-0.3,0-0.4h4.8
	c0,0.1,0,0.3,0,0.4c0,0.4,0.1,0.8,0.3,1.1c0.2,0.3,0.5,0.6,0.9,0.7c3,1.1,5.4,3.7,6.3,6.8c0.9,3.1,0.3,6.5-1.7,9.1
	c-2,2.6-5.1,4.2-8.3,4.2s-6.4-1.6-8.3-4.2c-2-2.6-2.6-6-1.7-9.1c0.9-3.1,3.3-5.7,6.3-6.8h0l0,0C9.8,10.2,10.1,10,10.4,9.7L10.4,9.7z
	 M8.7,19.1H8.6v0c-0.8,0-1.7,0.1-2.5,0.3c-0.5,0.1-0.9,0.3-1.1,0.7c-0.3,0.3-0.4,0.8-0.4,1.2v0.1c0.2,1.9,1,3.6,2.4,5
	c1.4,1.3,3.2,2.2,5.1,2.4c0.3,0,0.7,0.1,1,0.1h0c2.1,0,4.1-0.7,5.7-2.1c1.8-1.6,2.9-3.8,2.9-6.2v-0.2c0-0.6-0.4-1.2-0.9-1.5
	c-0.6-0.3-1.3-0.3-1.9,0c-0.4,0.2-0.8,0.5-1.2,0.7c-1.5,0.9-2.8,1.6-3.5,1.6c-1,0-1.7-0.5-2.4-1l0,0C10.9,19.7,10,19.1,8.7,19.1z
	 M18.1,20.4l1.2-0.7l0,0c0.3-0.2,0.6-0.2,0.9,0c0.3,0.2,0.5,0.4,0.5,0.7v0.1c0,2.1-0.9,4.1-2.6,5.5c-1.6,1.4-3.8,2.1-6,1.8
	c-1.7-0.2-3.4-1-4.6-2.1c-1.2-1.2-2-2.8-2.2-4.4v-0.1c0-0.5,0.3-0.9,0.8-1C7.1,20.1,7.9,20,8.8,20c1,0,1.7,0.5,2.4,1l0,0
	c0.7,0.5,1.7,1.1,3,1.1C15.2,22,16.5,21.3,18.1,20.4L18.1,20.4L18.1,20.4z M5.9,15.9c0-0.2,0-0.4,0.1-0.5h0c1.2-2,3.3-3.4,5.6-3.6
	l0.1,0l0.1,0c0.3,0,0.6,0.3,0.6,0.6c0,0.3-0.2,0.6-0.5,0.7l0,0l-0.1,0c-1.9,0.2-3.6,1.3-4.5,2.9c-0.1,0.2-0.3,0.3-0.5,0.3h0
	c0,0,0,0-0.1,0c-0.1,0-0.2,0-0.3-0.1C6.1,16.3,6,16.1,5.9,15.9z M9.7,21.9c-0.5,0.2-0.8,0.7-0.8,1.2c0,0.4,0.1,0.7,0.4,0.9
	c0.3,0.3,0.6,0.4,0.9,0.4c0.5,0,1-0.3,1.2-0.8c0.2-0.5,0.1-1.1-0.3-1.5C10.8,21.9,10.2,21.7,9.7,21.9z M14.7,26
	c-0.3,0-0.5-0.1-0.7-0.3v0c-0.1-0.1-0.2-0.2-0.2-0.3c-0.1-0.1-0.1-0.2-0.1-0.4c0-0.1,0-0.2,0.1-0.3c0.1-0.2,0.3-0.4,0.5-0.5
	c0.2-0.1,0.5-0.1,0.7,0l0,0c0.1,0,0.2,0.1,0.3,0.2c0.2,0.2,0.3,0.4,0.3,0.7c0,0.2-0.1,0.5-0.3,0.7c-0.1,0.1-0.2,0.2-0.3,0.2l0,0
	C14.9,26,14.8,26,14.7,26z"/>
</svg>
