<svg fill="none" height="52" viewBox="0 0 61 52" width="61" xmlns="http://www.w3.org/2000/svg" xmlns:xlink="http://www.w3.org/1999/xlink"><clipPath id="a"><path fill="rgb(150, 135, 197)" fill-opacity="1" d="m.189697.070313h60.0497v51.2847h-60.0497z"/></clipPath><g clip-path="url(#a)" fill="#f9f4f2"><path  fill="rgb(150, 135, 197)" fill-opacity="1" d="m47.0422 24.9598c-6.5142 0-11.9352 4.7446-13.0022 10.9563-1.1623-.5836-2.4676-.898-3.8252-.898s-2.6628.3121-3.8251.8956c-1.0671-6.2117-6.4904-10.9562-13.0022-10.9562-7.27642 0-13.197559 5.9211-13.197559 13.1975 0 7.2763 5.921139 13.1975 13.197559 13.1975 7.2763 0 13.1165-5.8426 13.1951-13.0546 1.0313-.736 2.296-1.1385 3.6346-1.1385s2.6009.4025 3.6346 1.1361c.0762 7.2121 5.964 13.0546 13.1928 13.0546 7.2287 0 13.1975-5.9211 13.1975-13.1975s-5.9212-13.1975-13.1975-13.1975zm-33.6547 24.2514c-6.09505 0-11.05395-4.9588-11.05395-11.0538 0-6.0951 4.9589-11.0539 11.05395-11.0539 6.095 0 11.0538 4.9588 11.0538 11.0539 0 6.095-4.9588 11.0538-11.0538 11.0538zm33.6547 0c-6.095 0-11.0539-4.9588-11.0539-11.0538 0-6.0951 4.9589-11.0539 11.0539-11.0539s11.0539 4.9588 11.0539 11.0539c0 6.095-4.9589 11.0538-11.0539 11.0538z"/><path fill="rgb(150, 135, 197)" fill-opacity="1" d="m51.1103 29.3167c-2.8677-.998-6.0331-.7145-8.6817.7788-.5144.2906-.6978.9456-.4073 1.4601.1977.3501.5598.5454.9337.5454.1786 0 .3597-.0452.5264-.1381 2.1126-1.1909 4.6349-1.4172 6.9238-.6217.5598.1953 1.1695-.1 1.3648-.6597s-.1-1.1695-.6597-1.3648z"/><path fill="rgb(150, 135, 197)" fill-opacity="1" d="m40.4919 32.9293c-.4835-.343-1.1528-.2287-1.4934.2548-.574.8098-1.0337 1.7006-1.3623 2.6462-.1954.5597.1 1.1695.6597 1.3648.1167.0405.2358.0595.3525.0595.443 0 .8575-.2763 1.0123-.7193.262-.755.6288-1.4672 1.0861-2.1126.343-.4835.2286-1.1528-.2549-1.4934z"/><path fill="rgb(150, 135, 197)" fill-opacity="1" d="m14.1494 11.6649 3.9418-.3501-1.641 7.243c-.0738.3215.0857.6526.3811.8003.1.05.2072.0738.3144.0738.2072 0 .412-.0905.5502-.2596l8.8555-10.71331c.1667-.20007.2096-.47636.1119-.7193-.0976-.24295-.3168-.41205-.5764-.4454l-3.6941-.45016 1.3528-5.894932c.0739-.31916-.0786-.645465-.3692-.795518-.2905-.15005292-.6454-.0833628-.8622.164344l-8.965 10.167876c-.193.2191-.2334.5335-.1024.7955s.4096.4144.7002.3882z"/></g></svg>
